# Blender 3.1.0
# www.blender.org
o Grid.001
v -3.000000 -18.000000 -0.000009
v -6.000000 -12.000000 -0.000006
v -6.000000 -18.000000 -0.000009
v 0.000000 -18.000000 -0.000009
v -3.000000 -12.000000 -0.000006
v 3.000000 -18.000000 -0.000009
v 0.000000 -12.000000 -0.000006
v 6.000000 -18.000000 -0.000009
v 3.000000 -12.000000 -0.000006
v -6.000000 -6.000000 -0.000003
v -3.000000 -6.000000 -0.000003
v 0.000000 -6.000000 -0.000003
v 6.000000 -12.000000 -0.000006
v 3.000000 -6.000000 -0.000003
v -6.000000 0.000000 0.000000
v -3.000000 0.000000 0.000000
v 0.000000 0.000000 0.000000
v 6.000000 -6.000000 -0.000003
v 3.000000 0.000000 0.000000
v -6.000000 6.000000 0.000003
v -3.000000 6.000000 0.000003
v 0.000000 6.000000 0.000003
v 6.000000 0.000000 0.000000
v 3.000000 6.000000 0.000003
v -6.000000 12.000000 0.000006
v -3.000000 12.000000 0.000006
v 0.000000 12.000000 0.000006
v 6.000000 6.000000 0.000003
v 3.000000 12.000000 0.000006
v -6.000000 18.000000 0.000009
v -3.000000 18.000000 0.000009
v 0.000000 18.000000 0.000009
v 6.000000 12.000000 0.000006
v 3.000000 18.000000 0.000009
v 6.000000 18.000000 0.000009
vn -0.0000 -0.0000 3.0000
vt 0.000000 0.000000
vt 1.000000 0.000000
vt 0.000000 0.000000
vt 0.000000 1.000000
vt 0.000000 0.000000
vt 0.000000 0.000000
vt 1.000000 0.000000
vt 0.000000 0.000000
vt 1.000000 1.000000
vt 0.000000 1.000000
vt 1.000000 0.000000
vt 0.000000 0.000000
vt 1.000000 0.000000
vt 0.000000 0.000000
vt 1.000000 1.000000
vt 0.000000 1.000000
vt 1.000000 0.000000
vt 1.000000 0.000000
vt 0.000000 0.000000
vt 1.000000 1.000000
vt 0.000000 1.000000
vt 1.000000 0.000000
vt 0.000000 0.000000
vt 0.000000 1.000000
vt 0.000000 0.000000
vt 1.000000 1.000000
vt 0.000000 1.000000
vt 1.000000 0.000000
vt 0.000000 0.000000
vt 1.000000 1.000000
vt 0.000000 1.000000
vt 1.000000 0.000000
vt 1.000000 1.000000
vt 1.000000 0.000000
vt 0.000000 0.000000
vt 1.000000 1.000000
vt 0.000000 1.000000
vt 1.000000 0.000000
vt 0.000000 0.000000
vt 0.000000 1.000000
vt 0.000000 0.000000
vt 1.000000 1.000000
vt 0.000000 1.000000
vt 1.000000 0.000000
vt 0.000000 0.000000
vt 1.000000 1.000000
vt 0.000000 1.000000
vt 1.000000 0.000000
vt 1.000000 1.000000
vt 1.000000 0.000000
vt 0.000000 0.000000
vt 1.000000 1.000000
vt 0.000000 1.000000
vt 1.000000 0.000000
vt 0.000000 0.000000
vt 0.000000 1.000000
vt 0.000000 0.000000
vt 1.000000 1.000000
vt 0.000000 1.000000
vt 1.000000 0.000000
vt 0.000000 0.000000
vt 1.000000 1.000000
vt 0.000000 1.000000
vt 1.000000 0.000000
vt 1.000000 1.000000
vt 1.000000 0.000000
vt 0.000000 0.000000
vt 1.000000 1.000000
vt 0.000000 1.000000
vt 1.000000 0.000000
vt 0.000000 0.000000
vt 0.000000 1.000000
vt 0.000000 0.000000
vt 1.000000 1.000000
vt 0.000000 1.000000
vt 1.000000 0.000000
vt 0.000000 0.000000
vt 1.000000 1.000000
vt 0.000000 1.000000
vt 1.000000 0.000000
vt 1.000000 1.000000
vt 1.000000 0.000000
vt 0.000000 0.000000
vt 1.000000 1.000000
vt 0.000000 1.000000
vt 1.000000 0.000000
vt 0.000000 1.000000
vt 1.000000 1.000000
vt 0.000000 1.000000
vt 1.000000 1.000000
vt 0.000000 1.000000
vt 1.000000 1.000000
vt 1.000000 0.000000
vt 1.000000 1.000000
vt 0.000000 1.000000
vt 1.000000 1.000000
s 1
f 1/2/1 2/4/1 3/5/1
f 4/7/1 5/10/1 1/1/1
f 6/13/1 7/16/1 4/6/1
f 8/18/1 9/21/1 6/12/1
f 5/11/1 10/24/1 2/3/1
f 7/17/1 11/27/1 5/8/1
f 9/22/1 12/31/1 7/14/1
f 13/34/1 14/37/1 9/19/1
f 11/28/1 15/40/1 10/23/1
f 12/32/1 16/43/1 11/25/1
f 14/38/1 17/47/1 12/29/1
f 18/50/1 19/53/1 14/35/1
f 16/44/1 20/56/1 15/39/1
f 17/48/1 21/59/1 16/41/1
f 19/54/1 22/63/1 17/45/1
f 23/66/1 24/69/1 19/51/1
f 21/60/1 25/72/1 20/55/1
f 22/64/1 26/75/1 21/57/1
f 24/70/1 27/79/1 22/61/1
f 28/82/1 29/85/1 24/67/1
f 26/76/1 30/87/1 25/71/1
f 27/80/1 31/89/1 26/73/1
f 29/86/1 32/91/1 27/77/1
f 33/93/1 34/95/1 29/83/1
f 1/2/1 5/9/1 2/4/1
f 4/7/1 7/15/1 5/10/1
f 6/13/1 9/20/1 7/16/1
f 8/18/1 13/33/1 9/21/1
f 5/11/1 11/26/1 10/24/1
f 7/17/1 12/30/1 11/27/1
f 9/22/1 14/36/1 12/31/1
f 13/34/1 18/49/1 14/37/1
f 11/28/1 16/42/1 15/40/1
f 12/32/1 17/46/1 16/43/1
f 14/38/1 19/52/1 17/47/1
f 18/50/1 23/65/1 19/53/1
f 16/44/1 21/58/1 20/56/1
f 17/48/1 22/62/1 21/59/1
f 19/54/1 24/68/1 22/63/1
f 23/66/1 28/81/1 24/69/1
f 21/60/1 26/74/1 25/72/1
f 22/64/1 27/78/1 26/75/1
f 24/70/1 29/84/1 27/79/1
f 28/82/1 33/92/1 29/85/1
f 26/76/1 31/88/1 30/87/1
f 27/80/1 32/90/1 31/89/1
f 29/86/1 34/94/1 32/91/1
f 33/93/1 35/96/1 34/95/1
